<svg xmlns="http://www.w3.org/2000/svg" width="8" height="844" fill="none" viewBox="0 0 8 844"><rect width="8" height="1" fill="#fff" fill-opacity=".1" transform="matrix(-1 0 0 1 8 4)"/><rect width="8" height="1" fill="#fff" fill-opacity=".1" transform="matrix(-1 0 0 1 8 13)"/><rect width="8" height="1" fill="#fff" fill-opacity=".1" transform="matrix(-1 0 0 1 8 22)"/><rect width="8" height="1" fill="#fff" fill-opacity=".1" transform="matrix(-1 0 0 1 8 31)"/><rect width="8" height="1" fill="#fff" fill-opacity=".1" transform="matrix(-1 0 0 1 8 40)"/><rect width="8" height="1" fill="#fff" fill-opacity=".1" transform="matrix(-1 0 0 1 8 49)"/><rect width="8" height="1" fill="#fff" fill-opacity=".1" transform="matrix(-1 0 0 1 8 58)"/><rect width="8" height="1" fill="#fff" fill-opacity=".1" transform="matrix(-1 0 0 1 8 67)"/><rect width="8" height="1" fill="#fff" fill-opacity=".1" transform="matrix(-1 0 0 1 8 76)"/><rect width="8" height="1" fill="#fff" fill-opacity=".1" transform="matrix(-1 0 0 1 8 85)"/><rect width="8" height="1" fill="#fff" fill-opacity=".1" transform="matrix(-1 0 0 1 8 94)"/><rect width="8" height="1" fill="#fff" fill-opacity=".1" transform="matrix(-1 0 0 1 8 103)"/><rect width="8" height="1" fill="#fff" fill-opacity=".1" transform="matrix(-1 0 0 1 8 112)"/><rect width="8" height="1" fill="#fff" fill-opacity=".1" transform="matrix(-1 0 0 1 8 121)"/><rect width="8" height="1" fill="#fff" fill-opacity=".1" transform="matrix(-1 0 0 1 8 130)"/><rect width="8" height="1" fill="#fff" fill-opacity=".1" transform="matrix(-1 0 0 1 8 139)"/><rect width="8" height="1" fill="#fff" fill-opacity=".1" transform="matrix(-1 0 0 1 8 148)"/><rect width="8" height="1" fill="#fff" fill-opacity=".1" transform="matrix(-1 0 0 1 8 157)"/><rect width="8" height="1" fill="#fff" fill-opacity=".1" transform="matrix(-1 0 0 1 8 166)"/><rect width="8" height="1" fill="#fff" fill-opacity=".1" transform="matrix(-1 0 0 1 8 175)"/><rect width="8" height="1" fill="#fff" fill-opacity=".1" transform="matrix(-1 0 0 1 8 184)"/><rect width="8" height="1" fill="#fff" fill-opacity=".1" transform="matrix(-1 0 0 1 8 193)"/><rect width="8" height="1" fill="#fff" fill-opacity=".1" transform="matrix(-1 0 0 1 8 202)"/><rect width="8" height="1" fill="#fff" fill-opacity=".1" transform="matrix(-1 0 0 1 8 211)"/><rect width="8" height="1" fill="#fff" fill-opacity=".1" transform="matrix(-1 0 0 1 8 220)"/><rect width="8" height="1" fill="#fff" fill-opacity=".1" transform="matrix(-1 0 0 1 8 229)"/><rect width="8" height="1" fill="#fff" fill-opacity=".1" transform="matrix(-1 0 0 1 8 238)"/><rect width="8" height="1" fill="#fff" fill-opacity=".1" transform="matrix(-1 0 0 1 8 247)"/><rect width="8" height="1" fill="#fff" fill-opacity=".1" transform="matrix(-1 0 0 1 8 256)"/><rect width="8" height="1" fill="#fff" fill-opacity=".1" transform="matrix(-1 0 0 1 8 265)"/><rect width="8" height="1" fill="#fff" fill-opacity=".1" transform="matrix(-1 0 0 1 8 274)"/><rect width="8" height="1" fill="#fff" fill-opacity=".1" transform="matrix(-1 0 0 1 8 283)"/><rect width="8" height="1" fill="#fff" fill-opacity=".1" transform="matrix(-1 0 0 1 8 292)"/><rect width="8" height="1" fill="#fff" fill-opacity=".1" transform="matrix(-1 0 0 1 8 301)"/><rect width="8" height="1" fill="#fff" fill-opacity=".1" transform="matrix(-1 0 0 1 8 310)"/><rect width="8" height="1" fill="#fff" fill-opacity=".1" transform="matrix(-1 0 0 1 8 319)"/><rect width="8" height="1" fill="#fff" fill-opacity=".1" transform="matrix(-1 0 0 1 8 328)"/><rect width="8" height="1" fill="#fff" fill-opacity=".1" transform="matrix(-1 0 0 1 8 337)"/><rect width="8" height="1" fill="#fff" fill-opacity=".1" transform="matrix(-1 0 0 1 8 346)"/><rect width="8" height="1" fill="#fff" fill-opacity=".1" transform="matrix(-1 0 0 1 8 355)"/><rect width="8" height="1" fill="#fff" fill-opacity=".1" transform="matrix(-1 0 0 1 8 364)"/><rect width="8" height="1" fill="#fff" fill-opacity=".1" transform="matrix(-1 0 0 1 8 373)"/><rect width="8" height="1" fill="#fff" fill-opacity=".1" transform="matrix(-1 0 0 1 8 382)"/><rect width="8" height="1" fill="#fff" fill-opacity=".1" transform="matrix(-1 0 0 1 8 391)"/><rect width="8" height="1" fill="#fff" fill-opacity=".1" transform="matrix(-1 0 0 1 8 400)"/><rect width="8" height="1" fill="#fff" fill-opacity=".1" transform="matrix(-1 0 0 1 8 409)"/><rect width="8" height="1" fill="#fff" fill-opacity=".1" transform="matrix(-1 0 0 1 8 418)"/><rect width="8" height="1" fill="#fff" fill-opacity=".1" transform="matrix(-1 0 0 1 8 427)"/><rect width="8" height="1" fill="#fff" fill-opacity=".1" transform="matrix(-1 0 0 1 8 436)"/><rect width="8" height="1" fill="#fff" fill-opacity=".1" transform="matrix(-1 0 0 1 8 445)"/><rect width="8" height="1" fill="#fff" fill-opacity=".1" transform="matrix(-1 0 0 1 8 454)"/><rect width="8" height="1" fill="#fff" fill-opacity=".1" transform="matrix(-1 0 0 1 8 463)"/><rect width="8" height="1" fill="#fff" fill-opacity=".1" transform="matrix(-1 0 0 1 8 472)"/><rect width="8" height="1" fill="#fff" fill-opacity=".1" transform="matrix(-1 0 0 1 8 481)"/><rect width="8" height="1" fill="#fff" fill-opacity=".1" transform="matrix(-1 0 0 1 8 490)"/><rect width="8" height="1" fill="#fff" fill-opacity=".1" transform="matrix(-1 0 0 1 8 499)"/><rect width="8" height="1" fill="#fff" fill-opacity=".1" transform="matrix(-1 0 0 1 8 508)"/><rect width="8" height="1" fill="#fff" fill-opacity=".1" transform="matrix(-1 0 0 1 8 517)"/><rect width="8" height="1" fill="#fff" fill-opacity=".1" transform="matrix(-1 0 0 1 8 526)"/><rect width="8" height="1" fill="#fff" fill-opacity=".1" transform="matrix(-1 0 0 1 8 535)"/><rect width="8" height="1" fill="#fff" fill-opacity=".1" transform="matrix(-1 0 0 1 8 544)"/><rect width="8" height="1" fill="#fff" fill-opacity=".1" transform="matrix(-1 0 0 1 8 553)"/><rect width="8" height="1" fill="#fff" fill-opacity=".1" transform="matrix(-1 0 0 1 8 562)"/><rect width="8" height="1" fill="#fff" fill-opacity=".1" transform="matrix(-1 0 0 1 8 571)"/><rect width="8" height="1" fill="#fff" fill-opacity=".1" transform="matrix(-1 0 0 1 8 580)"/><rect width="8" height="1" fill="#fff" fill-opacity=".1" transform="matrix(-1 0 0 1 8 589)"/><rect width="8" height="1" fill="#fff" fill-opacity=".1" transform="matrix(-1 0 0 1 8 598)"/><rect width="8" height="1" fill="#fff" fill-opacity=".1" transform="matrix(-1 0 0 1 8 607)"/><rect width="8" height="1" fill="#fff" fill-opacity=".1" transform="matrix(-1 0 0 1 8 616)"/><rect width="8" height="1" fill="#fff" fill-opacity=".1" transform="matrix(-1 0 0 1 8 625)"/><rect width="8" height="1" fill="#fff" fill-opacity=".1" transform="matrix(-1 0 0 1 8 634)"/><rect width="8" height="1" fill="#fff" fill-opacity=".1" transform="matrix(-1 0 0 1 8 643)"/><rect width="8" height="1" fill="#fff" fill-opacity=".1" transform="matrix(-1 0 0 1 8 652)"/><rect width="8" height="1" fill="#fff" fill-opacity=".1" transform="matrix(-1 0 0 1 8 661)"/><rect width="8" height="1" fill="#fff" fill-opacity=".1" transform="matrix(-1 0 0 1 8 670)"/><rect width="8" height="1" fill="#fff" fill-opacity=".1" transform="matrix(-1 0 0 1 8 679)"/><rect width="8" height="1" fill="#fff" fill-opacity=".1" transform="matrix(-1 0 0 1 8 688)"/><rect width="8" height="1" fill="#fff" fill-opacity=".1" transform="matrix(-1 0 0 1 8 697)"/><rect width="8" height="1" fill="#fff" fill-opacity=".1" transform="matrix(-1 0 0 1 8 706)"/><rect width="8" height="1" fill="#fff" fill-opacity=".1" transform="matrix(-1 0 0 1 8 715)"/><rect width="8" height="1" fill="#fff" fill-opacity=".1" transform="matrix(-1 0 0 1 8 724)"/><rect width="8" height="1" fill="#fff" fill-opacity=".1" transform="matrix(-1 0 0 1 8 733)"/><rect width="8" height="1" fill="#fff" fill-opacity=".1" transform="matrix(-1 0 0 1 8 742)"/><rect width="8" height="1" fill="#fff" fill-opacity=".1" transform="matrix(-1 0 0 1 8 751)"/><rect width="8" height="1" fill="#fff" fill-opacity=".1" transform="matrix(-1 0 0 1 8 760)"/><rect width="8" height="1" fill="#fff" fill-opacity=".1" transform="matrix(-1 0 0 1 8 769)"/><rect width="8" height="1" fill="#fff" fill-opacity=".1" transform="matrix(-1 0 0 1 8 778)"/><rect width="8" height="1" fill="#fff" fill-opacity=".1" transform="matrix(-1 0 0 1 8 787)"/><rect width="8" height="1" fill="#fff" fill-opacity=".1" transform="matrix(-1 0 0 1 8 796)"/><rect width="8" height="1" fill="#fff" fill-opacity=".1" transform="matrix(-1 0 0 1 8 805)"/><rect width="8" height="1" fill="#fff" fill-opacity=".1" transform="matrix(-1 0 0 1 8 814)"/><rect width="8" height="1" fill="#fff" fill-opacity=".1" transform="matrix(-1 0 0 1 8 823)"/><rect width="8" height="1" fill="#fff" fill-opacity=".1" transform="matrix(-1 0 0 1 8 832)"/><rect width="8" height="1" fill="#fff" fill-opacity=".1" transform="matrix(-1 0 0 1 8 841)"/></svg>